# xmcd CD database file
#
# Track frame offsets:
#	187
#	21557
#	42717
#
# Disc length: 851 seconds
#
# Revision: 0
# Processed by: cddbd v1.5PL3 Copyright (c) Steve Scherf et al.
# Submitted via: CDex 1.51
#
DISCID=27035103
DTITLE=聖飢魔II - 悪魔のメリークリスマス (青春編)
DYEAR=1996
DGENRE=Rock
TTITLE0=悪魔のメリークリスマス (青春編)
TTITLE1=Ass hole!
TTITLE2=悪魔のメリークリスマス (オリジナルカラオケ)
EXTD=YEAR: 1996
EXTT0=
EXTT1=
EXTT2=
PLAYORDER=
